<mxfile host="app.diagrams.net" modified="2023-04-09T21:00:46.830Z" agent="Mozilla/5.0 (Windows NT 10.0; Win64; x64) AppleWebKit/537.36 (KHTML, like Gecko) Chrome/111.0.0.0 Safari/537.36" etag="fJDKpRLUTaooBQqNZPhQ" version="21.1.5" type="github">
  <diagram name="Page-1" id="f1b7ffb7-ca1e-a977-7cf5-a751b3c06c05">
    <mxGraphModel dx="1036" dy="535" grid="0" gridSize="10" guides="1" tooltips="1" connect="1" arrows="1" fold="1" page="1" pageScale="1" pageWidth="827" pageHeight="769" background="#FFFFFF" math="0" shadow="0">
      <root>
        <mxCell id="0" />
        <mxCell id="1" parent="0" />
        <mxCell id="cVJXGdQeSUcvY2u7gv_X-103" value="" style="rounded=1;whiteSpace=wrap;html=1;fillColor=#f5f5f5;strokeColor=#67AB9F;gradientColor=none;glass=0;shadow=0;opacity=50;" vertex="1" parent="1">
          <mxGeometry x="68" y="95" width="652" height="40" as="geometry" />
        </mxCell>
        <mxCell id="cVJXGdQeSUcvY2u7gv_X-80" value="" style="rounded=1;labelBackgroundColor=none;labelBorderColor=none;noLabel=1;whiteSpace=wrap;html=1;glass=0;fillColor=#f5f5f5;strokeColor=#666666;fontColor=#333333;" vertex="1" parent="1">
          <mxGeometry x="65" y="179" width="680" height="350" as="geometry" />
        </mxCell>
        <mxCell id="2" value="Academify" style="text;spacingTop=-5;fontSize=28;fontStyle=3;align=center;horizontal=1;verticalAlign=middle;fontFamily=Georgia;fontColor=#46C7A0;" parent="1" vertex="1">
          <mxGeometry x="65" y="41.25" width="160" height="35" as="geometry" />
        </mxCell>
        <mxCell id="5" value="Home" style="text;spacingTop=-5;fontStyle=1;align=center;fontSize=18;fontColor=#2673BF;" parent="1" vertex="1">
          <mxGeometry x="83" y="100" width="47" height="30" as="geometry" />
        </mxCell>
        <mxCell id="6" value="Inbox" style="text;spacingTop=-5;align=center;fontStyle=1;fontSize=18;fontColor=#2673BF;" parent="1" vertex="1">
          <mxGeometry x="643.25" y="100" width="60" height="30" as="geometry" />
        </mxCell>
        <mxCell id="8" value="Abstract" style="text;spacingTop=-5;fontSize=14;fontStyle=1" parent="1" vertex="1">
          <mxGeometry x="119.41999999999999" y="269" width="91" height="30" as="geometry" />
        </mxCell>
        <mxCell id="9" value="Lorem ipsum dolor sit amet, consectetur adipisicing elit, sed do eiusmod tempor incididunt ut labore et dolore magna aliqua. Ut enim ad minim veniam, quis nostrud exercitation ullamco laboris nisi ut aliquip ex ea commodo consequat. Duis aute irure dolor in reprehenderit in voluptate velit esse cillum dolore eu fugiat nulla pariatur. Excepteur sint occaecat cupidatat non proident, sunt in culpa qui officia deserunt mollit anim id est laborum. Lorem ipsum dolor sit amet, consectetur adipisicing elit, sed do eiusmod tempor incididunt ut labore et dolore magna aliqua. Ut enim ad minim veniam, quis nostrud exercitation ullamco laboris nisi ut aliquip ex ea commodo consequat. Duis aute irure dolor in reprehenderit in voluptate velit esse cillum dolore eu fugiat nulla pariatur. Excepteur sint occaecat cupidatat non proident, sunt in culpa qui officia deserunt mollit anim id est laborum." style="text;spacingTop=-5;align=left;verticalAlign=middle;whiteSpace=wrap;" parent="1" vertex="1">
          <mxGeometry x="119.41999999999999" y="289" width="530" height="150" as="geometry" />
        </mxCell>
        <mxCell id="11" value="Log out" style="text;spacingTop=-5;align=center;fontStyle=1;fontSize=18;fontColor=#2673BF;" parent="1" vertex="1">
          <mxGeometry x="640" y="50.5" width="80" height="30" as="geometry" />
        </mxCell>
        <mxCell id="37" value="" style="verticalLabelPosition=bottom;verticalAlign=top;strokeWidth=1;shape=mxgraph.mockup.misc.rating;strokeColor=#999999;fillColor=#ffff00;emptyFillColor=#ffffff;grade=4;ratingScale=5;ratingStyle=star;fontSize=14;" parent="1" vertex="1">
          <mxGeometry x="623.9999999999999" y="489" width="67.5" height="10" as="geometry" />
        </mxCell>
        <mxCell id="38" value="Rate this article" style="text;spacingTop=-5;fontSize=14;align=center;fontColor=#67AB9F;fontStyle=1" parent="1" vertex="1">
          <mxGeometry x="473.25" y="484" width="111" height="20" as="geometry" />
        </mxCell>
        <mxCell id="47" value="Keywords: Keyword 1, Keyword 2, Keyword 3" style="text;spacingTop=-5;fontSize=14;align=center;fontColor=#67AB9F;fontStyle=1" parent="1" vertex="1">
          <mxGeometry x="119.41999999999999" y="449" width="290" height="20" as="geometry" />
        </mxCell>
        <mxCell id="cVJXGdQeSUcvY2u7gv_X-63" value="Search about a resource" style="text;spacingTop=-5;align=center;fontStyle=0;fontSize=18;fontColor=#B3B3B3;textOpacity=90;fontFamily=Times New Roman;" vertex="1" parent="1">
          <mxGeometry x="307.15" y="48" width="252.5" height="27.5" as="geometry" />
        </mxCell>
        <mxCell id="cVJXGdQeSUcvY2u7gv_X-66" value="Your Profile" style="text;spacingTop=-5;align=center;fontStyle=1;fontSize=18;fontColor=#2673BF;" vertex="1" parent="1">
          <mxGeometry x="473.25" y="100" width="120" height="30" as="geometry" />
        </mxCell>
        <mxCell id="cVJXGdQeSUcvY2u7gv_X-67" value="Community" style="text;spacingTop=-5;align=center;fontStyle=1;fontSize=18;fontColor=#2673BF;" vertex="1" parent="1">
          <mxGeometry x="180" y="100" width="130" height="30" as="geometry" />
        </mxCell>
        <mxCell id="cVJXGdQeSUcvY2u7gv_X-68" value="About Us" style="text;spacingTop=-5;align=center;fontStyle=1;fontSize=18;fontColor=#2673BF;" vertex="1" parent="1">
          <mxGeometry x="318.5" y="100" width="130" height="30" as="geometry" />
        </mxCell>
        <mxCell id="cVJXGdQeSUcvY2u7gv_X-69" value="" style="line;strokeWidth=1;fontStyle=1" vertex="1" parent="1">
          <mxGeometry x="351" y="68" width="166" height="10" as="geometry" />
        </mxCell>
        <mxCell id="cVJXGdQeSUcvY2u7gv_X-70" value="" style="sketch=0;html=1;aspect=fixed;strokeColor=none;shadow=0;fillColor=#3B8DF1;verticalAlign=top;labelPosition=center;verticalLabelPosition=bottom;shape=mxgraph.gcp2.search" vertex="1" parent="1">
          <mxGeometry x="567.15" y="58" width="14.85" height="15" as="geometry" />
        </mxCell>
        <mxCell id="cVJXGdQeSUcvY2u7gv_X-75" value="Resource Title" style="text;spacingTop=-5;fontSize=18;fontStyle=1;align=center;fontColor=#3399FF;" vertex="1" parent="1">
          <mxGeometry x="340" y="189" width="130" height="30" as="geometry" />
        </mxCell>
        <mxCell id="cVJXGdQeSUcvY2u7gv_X-78" value="Authors: John Doe, John Doe, John Doe" style="text;spacingTop=-5;fontSize=14;fontStyle=1;fontColor=#67AB9F;" vertex="1" parent="1">
          <mxGeometry x="119.41999999999999" y="229" width="280.58" height="20" as="geometry" />
        </mxCell>
        <mxCell id="cVJXGdQeSUcvY2u7gv_X-79" value="Date of Publication: DD/MM/YYYY" style="text;spacingTop=-5;fontSize=14;fontStyle=1;fontColor=#67AB9F;" vertex="1" parent="1">
          <mxGeometry x="473.25" y="449" width="230" height="20" as="geometry" />
        </mxCell>
        <mxCell id="cVJXGdQeSUcvY2u7gv_X-81" value="Tags: Tag 1, Tag 2, Tag3" style="text;spacingTop=-5;fontSize=14;align=center;fontColor=#67AB9F;fontStyle=1" vertex="1" parent="1">
          <mxGeometry x="108" y="484" width="162" height="20" as="geometry" />
        </mxCell>
        <mxCell id="cVJXGdQeSUcvY2u7gv_X-82" value="" style="rounded=1;labelBackgroundColor=#660033;labelBorderColor=#FFFF00;noLabel=1;whiteSpace=wrap;html=1;shadow=0;glass=0;fillColor=#f5f5f5;strokeColor=#666666;fontColor=#333333;" vertex="1" parent="1">
          <mxGeometry x="65" y="539" width="680" height="350" as="geometry" />
        </mxCell>
        <mxCell id="cVJXGdQeSUcvY2u7gv_X-83" value="Abstract" style="text;spacingTop=-5;fontSize=14;fontStyle=1" vertex="1" parent="1">
          <mxGeometry x="119.41999999999999" y="629" width="91" height="30" as="geometry" />
        </mxCell>
        <mxCell id="cVJXGdQeSUcvY2u7gv_X-84" value="Lorem ipsum dolor sit amet, consectetur adipisicing elit, sed do eiusmod tempor incididunt ut labore et dolore magna aliqua. Ut enim ad minim veniam, quis nostrud exercitation ullamco laboris nisi ut aliquip ex ea commodo consequat. Duis aute irure dolor in reprehenderit in voluptate velit esse cillum dolore eu fugiat nulla pariatur. Excepteur sint occaecat cupidatat non proident, sunt in culpa qui officia deserunt mollit anim id est laborum. Lorem ipsum dolor sit amet, consectetur adipisicing elit, sed do eiusmod tempor incididunt ut labore et dolore magna aliqua. Ut enim ad minim veniam, quis nostrud exercitation ullamco laboris nisi ut aliquip ex ea commodo consequat. Duis aute irure dolor in reprehenderit in voluptate velit esse cillum dolore eu fugiat nulla pariatur. Excepteur sint occaecat cupidatat non proident, sunt in culpa qui officia deserunt mollit anim id est laborum." style="text;spacingTop=-5;align=left;verticalAlign=middle;whiteSpace=wrap;" vertex="1" parent="1">
          <mxGeometry x="119.41999999999999" y="649" width="530" height="150" as="geometry" />
        </mxCell>
        <mxCell id="cVJXGdQeSUcvY2u7gv_X-85" value="" style="verticalLabelPosition=bottom;verticalAlign=top;strokeWidth=1;shape=mxgraph.mockup.misc.rating;strokeColor=#999999;fillColor=#ffff00;emptyFillColor=#ffffff;grade=4;ratingScale=5;ratingStyle=star;fontSize=14;" vertex="1" parent="1">
          <mxGeometry x="623.9999999999999" y="849" width="67.5" height="10" as="geometry" />
        </mxCell>
        <mxCell id="cVJXGdQeSUcvY2u7gv_X-86" value="Rate this article" style="text;spacingTop=-5;fontSize=14;align=center;fontColor=#67AB9F;fontStyle=1" vertex="1" parent="1">
          <mxGeometry x="473.25" y="844" width="111" height="20" as="geometry" />
        </mxCell>
        <mxCell id="cVJXGdQeSUcvY2u7gv_X-87" value="Keywords: Keyword 1, Keyword 2, Keyword 3" style="text;spacingTop=-5;fontSize=14;align=center;fontColor=#67AB9F;fontStyle=1" vertex="1" parent="1">
          <mxGeometry x="119.41999999999999" y="809" width="290" height="20" as="geometry" />
        </mxCell>
        <mxCell id="cVJXGdQeSUcvY2u7gv_X-88" value="Resource Title" style="text;spacingTop=-5;fontSize=18;fontStyle=1;align=center;fontColor=#3399FF;" vertex="1" parent="1">
          <mxGeometry x="340" y="549" width="130" height="30" as="geometry" />
        </mxCell>
        <mxCell id="cVJXGdQeSUcvY2u7gv_X-89" value="Authors: John Doe, John Doe, John Doe" style="text;spacingTop=-5;fontSize=14;fontStyle=1;fontColor=#67AB9F;" vertex="1" parent="1">
          <mxGeometry x="119.41999999999999" y="589" width="280.58" height="20" as="geometry" />
        </mxCell>
        <mxCell id="cVJXGdQeSUcvY2u7gv_X-90" value="Date of Publication: DD/MM/YYYY" style="text;spacingTop=-5;fontSize=14;fontStyle=1;fontColor=#67AB9F;" vertex="1" parent="1">
          <mxGeometry x="473.25" y="809" width="230" height="20" as="geometry" />
        </mxCell>
        <mxCell id="cVJXGdQeSUcvY2u7gv_X-91" value="Tags: Tag 1, Tag 2, Tag3" style="text;spacingTop=-5;fontSize=14;align=center;fontColor=#67AB9F;fontStyle=1" vertex="1" parent="1">
          <mxGeometry x="108" y="844" width="162" height="20" as="geometry" />
        </mxCell>
        <mxCell id="cVJXGdQeSUcvY2u7gv_X-92" value="" style="triangle;whiteSpace=wrap;html=1;direction=south;fontColor=none;noLabel=1;labelBackgroundColor=none;fillColor=#67AB9F;" vertex="1" parent="1">
          <mxGeometry x="371.5" y="1270" width="77" height="40" as="geometry" />
        </mxCell>
        <mxCell id="cVJXGdQeSUcvY2u7gv_X-93" value="" style="rounded=1;labelBackgroundColor=#660033;labelBorderColor=#FFFF00;noLabel=1;whiteSpace=wrap;html=1;glass=0;fillColor=#f5f5f5;strokeColor=#666666;fontColor=#333333;" vertex="1" parent="1">
          <mxGeometry x="65" y="899" width="680" height="350" as="geometry" />
        </mxCell>
        <mxCell id="cVJXGdQeSUcvY2u7gv_X-94" value="Abstract" style="text;spacingTop=-5;fontSize=14;fontStyle=1" vertex="1" parent="1">
          <mxGeometry x="119.41999999999999" y="989" width="91" height="30" as="geometry" />
        </mxCell>
        <mxCell id="cVJXGdQeSUcvY2u7gv_X-95" value="Lorem ipsum dolor sit amet, consectetur adipisicing elit, sed do eiusmod tempor incididunt ut labore et dolore magna aliqua. Ut enim ad minim veniam, quis nostrud exercitation ullamco laboris nisi ut aliquip ex ea commodo consequat. Duis aute irure dolor in reprehenderit in voluptate velit esse cillum dolore eu fugiat nulla pariatur. Excepteur sint occaecat cupidatat non proident, sunt in culpa qui officia deserunt mollit anim id est laborum. Lorem ipsum dolor sit amet, consectetur adipisicing elit, sed do eiusmod tempor incididunt ut labore et dolore magna aliqua. Ut enim ad minim veniam, quis nostrud exercitation ullamco laboris nisi ut aliquip ex ea commodo consequat. Duis aute irure dolor in reprehenderit in voluptate velit esse cillum dolore eu fugiat nulla pariatur. Excepteur sint occaecat cupidatat non proident, sunt in culpa qui officia deserunt mollit anim id est laborum." style="text;spacingTop=-5;align=left;verticalAlign=middle;whiteSpace=wrap;" vertex="1" parent="1">
          <mxGeometry x="119.41999999999999" y="1009" width="530" height="150" as="geometry" />
        </mxCell>
        <mxCell id="cVJXGdQeSUcvY2u7gv_X-96" value="" style="verticalLabelPosition=bottom;verticalAlign=top;strokeWidth=1;shape=mxgraph.mockup.misc.rating;strokeColor=#999999;fillColor=#ffff00;emptyFillColor=#ffffff;grade=4;ratingScale=5;ratingStyle=star;fontSize=14;" vertex="1" parent="1">
          <mxGeometry x="623.9999999999999" y="1209" width="67.5" height="10" as="geometry" />
        </mxCell>
        <mxCell id="cVJXGdQeSUcvY2u7gv_X-97" value="Rate this article" style="text;spacingTop=-5;fontSize=14;align=center;fontColor=#67AB9F;fontStyle=1" vertex="1" parent="1">
          <mxGeometry x="473.25" y="1204" width="111" height="20" as="geometry" />
        </mxCell>
        <mxCell id="cVJXGdQeSUcvY2u7gv_X-98" value="Keywords: Keyword 1, Keyword 2, Keyword 3" style="text;spacingTop=-5;fontSize=14;align=center;fontColor=#67AB9F;fontStyle=1" vertex="1" parent="1">
          <mxGeometry x="119.41999999999999" y="1169" width="290" height="20" as="geometry" />
        </mxCell>
        <mxCell id="cVJXGdQeSUcvY2u7gv_X-99" value="Resource Title" style="text;spacingTop=-5;fontSize=18;fontStyle=1;align=center;fontColor=#3399FF;" vertex="1" parent="1">
          <mxGeometry x="340" y="909" width="130" height="30" as="geometry" />
        </mxCell>
        <mxCell id="cVJXGdQeSUcvY2u7gv_X-100" value="Authors: John Doe, John Doe, John Doe" style="text;spacingTop=-5;fontSize=14;fontStyle=1;fontColor=#67AB9F;" vertex="1" parent="1">
          <mxGeometry x="119.41999999999999" y="949" width="280.58" height="20" as="geometry" />
        </mxCell>
        <mxCell id="cVJXGdQeSUcvY2u7gv_X-101" value="Date of Publication: DD/MM/YYYY" style="text;spacingTop=-5;fontSize=14;fontStyle=1;fontColor=#67AB9F;" vertex="1" parent="1">
          <mxGeometry x="473.25" y="1169" width="230" height="20" as="geometry" />
        </mxCell>
        <mxCell id="cVJXGdQeSUcvY2u7gv_X-102" value="Tags: Tag 1, Tag 2, Tag3" style="text;spacingTop=-5;fontSize=14;align=center;fontColor=#67AB9F;fontStyle=1" vertex="1" parent="1">
          <mxGeometry x="108" y="1204" width="162" height="20" as="geometry" />
        </mxCell>
        <mxCell id="cVJXGdQeSUcvY2u7gv_X-105" value="&lt;b&gt;&lt;i&gt;Copyrights by Team #4&lt;/i&gt;&lt;/b&gt;" style="rounded=0;whiteSpace=wrap;html=1;fillColor=#f5f5f5;gradientColor=#b3b3b3;strokeColor=#666666;" vertex="1" parent="1">
          <mxGeometry x="74" y="1334" width="672" height="30" as="geometry" />
        </mxCell>
      </root>
    </mxGraphModel>
  </diagram>
</mxfile>
